<svg id="Layer_1" enable-background="new 0 0 256 256" height="512" viewBox="0 0 256 256" width="512" xmlns="http://www.w3.org/2000/svg"><path d="m47.546 26.24c-.974 11.564-13.024 13.39-13.024 13.39 10.347.487 12.925 14.059 12.925 14.059.221-9.677 13.321-14.202 13.321-14.202-9.814-.588-13.222-13.247-13.222-13.247z" fill="#d7e057"/><path d="m60.857 37.989c-8.605-.514-11.832-12.024-11.864-12.14-.191-.703-.859-1.163-1.583-1.102-.725.066-1.298.642-1.359 1.367-.86 10.215-11.314 11.963-11.754 12.032-.763.115-1.313.79-1.273 1.561.04.77.657 1.384 1.427 1.421 9.028.425 11.499 12.719 11.523 12.843.137.711.759 1.217 1.472 1.217.042 0 .084-.001.126-.005.764-.064 1.357-.693 1.375-1.459.195-8.509 12.192-12.777 12.313-12.819.675-.235 1.092-.915.994-1.623-.099-.709-.683-1.25-1.397-1.293zm-13.566 10.346c-1.356-3.13-3.709-6.907-7.587-8.876 2.931-1.405 6.409-3.913 8.202-8.273 1.551 3.071 4.2 6.88 8.334 8.722-3.007 1.64-6.923 4.406-8.949 8.427z" fill="#3a312a"/><path d="m25.847 43.221c-.689 8.179-9.212 9.47-9.212 9.47 7.318.344 9.142 9.944 9.142 9.944.156-6.844 9.422-10.045 9.422-10.045-6.941-.415-9.352-9.369-9.352-9.369z" fill="#d7e057"/><path d="m35.288 51.092c-5.766-.345-7.972-8.185-7.994-8.264-.191-.702-.854-1.17-1.582-1.102-.726.065-1.299.643-1.36 1.368-.579 6.871-7.646 8.067-7.942 8.114-.763.115-1.313.79-1.273 1.561.04.77.657 1.384 1.428 1.421 6.035.284 7.723 8.644 7.739 8.725.135.713.759 1.22 1.472 1.22.042 0 .083-.001.125-.005.765-.063 1.358-.693 1.376-1.461.131-5.709 8.332-8.634 8.413-8.662.677-.234 1.094-.913.996-1.622-.099-.708-.683-1.25-1.398-1.293zm-9.584 6.796c-.924-1.886-2.34-3.947-4.447-5.28 1.855-1.041 3.697-2.63 4.871-4.917 1.057 1.874 2.654 3.955 4.941 5.224-1.85 1.101-3.989 2.74-5.365 4.973z" fill="#3a312a"/><path d="m25.847 16.563c-.689 8.179-9.212 9.471-9.212 9.471 7.318.344 9.142 9.944 9.142 9.944.156-6.844 9.422-10.045 9.422-10.045-6.941-.416-9.352-9.37-9.352-9.37z" fill="#d7e057"/><path d="m35.289 24.435c-5.766-.345-7.973-8.186-7.994-8.265-.191-.702-.854-1.17-1.582-1.102-.726.065-1.299.643-1.36 1.368-.579 6.871-7.646 8.067-7.942 8.114-.763.115-1.313.79-1.273 1.561.04.77.657 1.384 1.427 1.421 6.036.284 7.724 8.644 7.739 8.726.135.713.759 1.22 1.472 1.22.042 0 .083-.001.125-.005.765-.063 1.358-.693 1.376-1.461.131-5.709 8.331-8.634 8.413-8.662.676-.234 1.094-.913.996-1.622-.099-.708-.683-1.25-1.397-1.293zm-9.585 6.795c-.924-1.886-2.34-3.947-4.447-5.28 1.856-1.042 3.697-2.63 4.871-4.917 1.057 1.874 2.654 3.954 4.941 5.224-1.85 1.101-3.989 2.741-5.365 4.973z" fill="#3a312a"/><path d="m162.42 90.87h-117.259c-4.904 0-8.879 3.976-8.879 8.879v79.464c0 22.6 18.321 40.921 40.921 40.921h53.176c22.6 0 40.921-18.321 40.921-40.921v-79.463c0-4.904-3.976-8.88-8.88-8.88z" fill="#f16c7a"/><path d="m162.42 89.37h-117.259c-5.723 0-10.379 4.656-10.379 10.379v13.24c0 .829.671 1.5 1.5 1.5s1.5-.671 1.5-1.5v-13.239c0-4.069 3.311-7.379 7.379-7.379h117.259c4.069 0 7.379 3.311 7.379 7.379v79.464c0 21.737-17.685 39.421-39.421 39.421h-53.175c-21.737 0-39.421-17.685-39.421-39.421v-51.464c0-.829-.671-1.5-1.5-1.5s-1.5.671-1.5 1.5v51.463c0 23.391 19.03 42.421 42.421 42.421h53.176c23.391 0 42.421-19.03 42.421-42.421v-79.463c0-5.724-4.656-10.38-10.38-10.38z" fill="#3a312a"/><path d="m16.635 220.135c0 10.728 8.697 19.426 19.425 19.426h135.461c10.728 0 19.426-8.697 19.426-19.426z" fill="#87796f"/><path d="m190.947 218.634h-174.313c-.829 0-1.5.671-1.5 1.5 0 11.539 9.387 20.926 20.926 20.926h89.35c.829 0 1.5-.671 1.5-1.5s-.671-1.5-1.5-1.5h-89.35c-9.379 0-17.099-7.24-17.864-16.426h171.189c-.765 9.186-8.484 16.426-17.863 16.426h-31.851c-.829 0-1.5.671-1.5 1.5s.671 1.5 1.5 1.5h31.851c11.538 0 20.925-9.387 20.925-20.926 0-.828-.672-1.5-1.5-1.5z" fill="#3a312a"/><path d="m172.571 109.246c-.43 0-.85.01-1.27.02v14.01c.42-.02.84-.03 1.27-.03 16.27 0 29.51 13.24 29.51 29.51 0 16.26-13.24 29.5-29.51 29.5-.46 0-.92-.01-1.38-.04-.35 4.87-1.56 9.51-3.48 13.76 1.59.19 3.22.28 4.86.28 23.99 0 43.51-19.52 43.51-43.5 0-23.99-19.52-43.51-43.51-43.51z" fill="#f16c7a"/><path d="m172.571 107.746c-.423 0-.836.009-1.305.021-.815.019-1.465.685-1.465 1.5v14.01c0 .41.168.803.465 1.085.297.283.689.429 1.106.413.397-.019.793-.029 1.199-.029 15.445 0 28.01 12.565 28.01 28.01 0 15.439-12.565 28-28.01 28-.428 0-.856-.009-1.283-.037-.828-.048-1.534.567-1.593 1.39-.331 4.603-1.458 9.061-3.351 13.25-.197.436-.174.938.06 1.355.235.416.654.695 1.128.752 1.616.193 3.311.291 5.038.291 24.818 0 45.01-20.187 45.01-45 .001-24.819-20.191-45.011-45.009-45.011zm0 87.01c-.907 0-1.803-.029-2.681-.086 1.377-3.5 2.272-7.158 2.67-10.914h.011c17.099 0 31.01-13.907 31.01-31 0-17.022-13.787-30.885-30.78-31.009v-11c23.06.124 41.78 18.921 41.78 42.01 0 23.158-18.846 41.999-42.01 41.999z" fill="#3a312a"/><path d="m75.328 75.876c-2.364-2.365-3.66-5.509-3.647-8.853.012-3.344 1.331-6.479 3.713-8.826 2.941-2.897 4.578-6.767 4.608-10.895s-1.549-8.021-4.447-10.961l-.435-.441c-4.786-4.856-4.757-12.729.064-17.549l.071-.071c.586-.585.586-1.536 0-2.121-.586-.586-1.535-.586-2.121 0l-.071.071c-5.982 5.982-6.018 15.75-.08 21.776l.435.441c2.335 2.37 3.608 5.507 3.584 8.834s-1.343 6.445-3.713 8.78c-2.956 2.913-4.592 6.802-4.607 10.952-.016 4.149 1.592 8.051 4.526 10.985l.246.246c.293.293.677.439 1.061.439s.768-.146 1.06-.439c.586-.585.586-1.536 0-2.121z" fill="#3a312a"/><path d="m95.456 75.876c-2.365-2.365-3.66-5.509-3.648-8.853s1.331-6.479 3.713-8.826c2.94-2.897 4.577-6.767 4.607-10.895s-1.549-8.021-4.447-10.961l-.435-.441c-4.786-4.856-4.757-12.729.064-17.549l.071-.071c.586-.585.586-1.536 0-2.121-.586-.586-1.535-.586-2.121 0l-.071.071c-5.982 5.982-6.018 15.75-.08 21.776l.435.441c2.336 2.37 3.608 5.507 3.583 8.834-.024 3.327-1.343 6.445-3.713 8.78-2.956 2.913-4.592 6.802-4.607 10.952-.016 4.149 1.592 8.051 4.526 10.985l.246.246c.293.293.677.439 1.06.439s.768-.146 1.061-.439c.586-.585.586-1.536 0-2.121z" fill="#3a312a"/><path d="m114.245 75.876c-2.364-2.365-3.66-5.509-3.647-8.853.012-3.344 1.331-6.479 3.713-8.826 2.941-2.897 4.577-6.767 4.607-10.895s-1.549-8.021-4.447-10.961l-.435-.441c-4.786-4.856-4.757-12.729.064-17.549l.071-.071c.586-.585.586-1.536 0-2.121-.586-.586-1.535-.586-2.121 0l-.071.071c-5.982 5.982-6.018 15.75-.08 21.776l.435.441c2.335 2.37 3.608 5.507 3.583 8.834-.024 3.327-1.343 6.445-3.713 8.78-2.956 2.913-4.592 6.802-4.607 10.952-.016 4.149 1.592 8.051 4.526 10.985l.246.246c.293.293.677.439 1.061.439s.768-.146 1.061-.439c.586-.585.586-1.536 0-2.121z" fill="#3a312a"/><path d="m134.373 75.876c-2.365-2.365-3.66-5.509-3.648-8.853s1.331-6.479 3.713-8.826c2.94-2.897 4.577-6.767 4.607-10.895s-1.549-8.021-4.447-10.961l-.435-.441c-4.786-4.856-4.757-12.729.064-17.549l.071-.071c.586-.585.586-1.536 0-2.121-.586-.586-1.535-.586-2.121 0l-.071.071c-5.982 5.982-6.018 15.75-.079 21.776l.435.441c2.336 2.37 3.608 5.507 3.583 8.834-.024 3.327-1.343 6.445-3.713 8.78-2.956 2.913-4.592 6.802-4.607 10.952-.016 4.149 1.592 8.051 4.526 10.985l.246.246c.293.293.677.439 1.061.439s.768-.146 1.061-.439c.586-.585.586-1.536 0-2.121z" fill="#3a312a"/><path d="m173.685 221.632v.003c-.761 9.179-8.464 16.41-17.829 16.426-.01 0-.02.001-.03.001h15.7c9.38 0 17.1-7.24 17.86-16.43z" fill="#695b51"/><path d="m80.923 110.013h-17.066l-8.466 11.486v39.512h33.999v-39.512zm-4.459 11.486c-.308 1.625-1.637 2.953-3.261 3.261-2.924.554-5.441-1.962-4.886-4.887.308-1.624 1.637-2.953 3.262-3.261 2.923-.553 5.439 1.963 4.885 4.887z" fill="#fce8cb"/><path d="m71.298 115.139c-2.24.424-4.031 2.214-4.456 4.455-.353 1.861.227 3.764 1.552 5.088 1.069 1.069 2.514 1.653 4.01 1.653.357 0 .718-.033 1.077-.102 2.241-.424 4.031-2.215 4.456-4.456.353-1.861-.227-3.763-1.552-5.088-1.325-1.323-3.227-1.906-5.087-1.55zm3.692 6.081c-.194 1.023-1.043 1.873-2.067 2.067-.899.167-1.776-.094-2.408-.726-.631-.631-.896-1.509-.726-2.408.194-1.023 1.044-1.873 2.067-2.066.179-.034.357-.05.532-.05.706 0 1.369.27 1.875.776.633.63.897 1.508.727 2.407zm15.607-.612-8.467-11.486c-.283-.383-.731-.61-1.208-.61h-17.065c-.477 0-.925.227-1.208.61l-8.466 11.486c-.19.258-.292.57-.292.89v39.512c0 .829.671 1.5 1.5 1.5h33.999c.829 0 1.5-.671 1.5-1.5v-39.512c-.001-.32-.103-.632-.293-.89zm-2.708 38.903h-30.998v-37.519l7.724-10.479h15.55l7.725 10.479v37.519z" fill="#3a312a"/><path d="m72.39 89.37c-.829 0-1.5.671-1.5 1.5v28.038c0 .829.671 1.5 1.5 1.5s1.5-.671 1.5-1.5v-28.038c0-.828-.672-1.5-1.5-1.5z" fill="#3a312a"/><ellipse cx="191.761" cy="64.045" fill="#87796f" rx="47.605" ry="47.605" transform="matrix(.383 -.924 .924 .383 59.207 216.7)"/><path d="m191.761 14.94c-27.077 0-49.105 22.028-49.105 49.105 0 27.076 22.028 49.104 49.105 49.104s49.105-22.028 49.105-49.104c0-27.077-22.029-49.105-49.105-49.105zm0 95.209c-25.422 0-46.105-20.683-46.105-46.104 0-25.422 20.683-46.105 46.105-46.105s46.105 20.683 46.105 46.105-20.683 46.104-46.105 46.104z" fill="#3a312a"/><ellipse cx="191.761" cy="64.045" fill="#f8e4c8" rx="37.477" ry="37.477" transform="matrix(.924 -.383 .383 .924 -9.912 78.259)"/><g fill="#3a312a"><path d="m191.761 25.068c-21.492 0-38.977 17.485-38.977 38.977s17.485 38.977 38.977 38.977 38.977-17.485 38.977-38.977c-.001-21.492-17.486-38.977-38.977-38.977zm0 74.953c-19.837 0-35.977-16.139-35.977-35.977s16.139-35.977 35.977-35.977 35.977 16.139 35.977 35.977c-.001 19.838-16.14 35.977-35.977 35.977z"/><path d="m191.924 33.285c-.649 0-1.176.527-1.176 1.176v2.389c0 .65.526 1.176 1.176 1.176s1.176-.526 1.176-1.176v-2.389c-.001-.649-.527-1.176-1.176-1.176z"/><path d="m191.924 90.243c-.649 0-1.176.526-1.176 1.176v2.389c0 .649.526 1.176 1.176 1.176s1.176-.526 1.176-1.176v-2.389c-.001-.65-.527-1.176-1.176-1.176z"/><path d="m221.597 62.958h-2.389c-.65 0-1.176.526-1.176 1.176s.526 1.176 1.176 1.176h2.389c.649 0 1.176-.526 1.176-1.176s-.527-1.176-1.176-1.176z"/><path d="m164.639 62.958h-2.389c-.649 0-1.176.526-1.176 1.176s.526 1.176 1.176 1.176h2.389c.649 0 1.176-.526 1.176-1.176s-.526-1.176-1.176-1.176z"/><path d="m213.737 42.32c-.459-.459-1.204-.459-1.663 0l-1.689 1.689c-.459.459-.459 1.204 0 1.663s1.204.459 1.663 0l1.689-1.689c.459-.459.459-1.203 0-1.663z"/><path d="m173.462 82.595c-.459-.459-1.204-.459-1.663 0l-1.689 1.689c-.459.459-.459 1.204 0 1.663s1.204.459 1.663 0l1.689-1.689c.459-.459.459-1.203 0-1.663z"/><path d="m213.737 84.285-1.689-1.689c-.459-.459-1.204-.459-1.663 0s-.459 1.204 0 1.663l1.689 1.689c.459.459 1.204.459 1.663 0 .459-.46.459-1.204 0-1.663z"/><path d="m173.462 44.01-1.689-1.689c-.459-.459-1.204-.459-1.663 0s-.459 1.204 0 1.663l1.689 1.689c.459.459 1.204.459 1.663 0 .459-.46.459-1.204 0-1.663z"/><path d="m192.984 63.074-10.148-10.148c-.586-.586-1.535-.586-2.121 0-.586.585-.586 1.536 0 2.121l10.148 10.148c.293.293.677.439 1.061.439s.768-.146 1.061-.439c.585-.586.585-1.536-.001-2.121z"/><path d="m209.65 46.778c-.586-.586-1.535-.586-2.121 0l-16.481 16.48c-.586.585-.586 1.536 0 2.121.293.293.677.439 1.061.439s.768-.146 1.06-.439l16.481-16.48c.586-.585.586-1.535 0-2.121z"/></g><path d="m151.686 92.37h-15c3.352 4.729 7.52 8.845 12.298 12.137 3.596 2.478 5.812 6.504 5.812 10.871v63.832c0 1.22-.06 2.41-.17 3.6-.02.22-.04.43-.06.65-.05.51-.12 1.01-.19 1.5-.01.11-.03.21-.04.31-.3 1.93-.74 3.8-1.3 5.63-.01.03-.03.06-.04.1-.17.55-.36 1.1-.55 1.64-.04.1-.08.21-.12.31-.17.47-.35.92-.54 1.38-.07.15-.13.3-.2.45-6.04 14.01-19.99 23.85-36.19 23.85h15c16.2 0 30.15-9.84 36.19-23.85.07-.15.13-.3.2-.45.19-.46.37-.91.54-1.38.04-.1.08-.21.12-.31.19-.54.38-1.09.55-1.64.01-.04.03-.07.04-.1.56-1.83 1-3.7 1.3-5.63.01-.1.03-.2.04-.31.07-.49.14-.99.19-1.5.02-.22.04-.43.06-.65.11-1.19.17-2.38.17-3.6v-71.26c-7.24-3.639-13.46-9.02-18.11-15.58z" fill="#d34e5c"/></svg>