<?xml version="1.0" encoding="iso-8859-1"?>
<!-- Generator: Adobe Illustrator 21.0.0, SVG Export Plug-In . SVG Version: 6.00 Build 0)  -->
<svg xmlns="http://www.w3.org/2000/svg" xmlns:xlink="http://www.w3.org/1999/xlink" version="1.1" id="Capa_1" x="0px" y="0px" viewBox="0 0 512 512" style="enable-background:new 0 0 512 512;" xml:space="preserve" width="512" height="512">
<g>
	
		<rect x="228.292" y="372.736" transform="matrix(-1.836970e-16 1 -1 -1.836970e-16 740.2916 159.8066)" style="fill:#FF2C5C;" width="123.902" height="154.627"/>
	<rect x="336.63" y="388.098" style="fill:#E62753;" width="30.925" height="123.902"/>
	<path style="fill:#D6244D;" d="M276.921,408.693c-4.143,0-7.5,3.357-7.5,7.5v49.448c0,4.143,3.357,7.5,7.5,7.5s7.5-3.357,7.5-7.5   v-49.448C284.421,412.051,281.063,408.693,276.921,408.693z"/>
	<g>
		<path style="fill:#E89776;" d="M301.613,185.675V61.416c0-11.281-9.145-20.427-20.427-20.427h-0.013    c-11.281,0-20.427,9.145-20.427,20.427v124.259H301.613z"/>
		<g>
			<path style="fill:#FFD659;" d="M24.089,104.959c41.276-32.253,61.413-16.641,61.413-16.641l0,41.887     c0,0-20.138,15.626-61.414-16.639C21.304,111.39,21.304,107.135,24.089,104.959z"/>
			<path style="fill:#50536E;" d="M83.851,101.765H63.234c-4.142,0-7.5,3.357-7.5,7.5s3.358,7.5,7.5,7.5h20.617     c4.142,0,7.5-3.357,7.5-7.5S87.993,101.765,83.851,101.765z"/>
			<path style="fill:#FF2C5C;" d="M490,93.293v31.936c0,8.252-6.68,14.938-14.927,14.938H88.898c-2.794,0-5.051-2.256-5.051-5.048     V83.403c0-2.782,2.258-5.048,5.051-5.048h386.175C483.32,78.356,490,85.041,490,93.293z"/>
			<path style="fill:#E62753;" d="M490,93.293v31.936c0,8.252-6.68,14.938-14.927,14.938h-30.925     c8.247,0,14.927-6.686,14.927-14.938V93.293c0-8.241-6.68-14.938-14.927-14.938h30.925C483.32,78.356,490,85.041,490,93.293z"/>
			<path style="fill:#4FC6F5;" d="M83.851,135.123l0-51.716c0-2.787,2.259-5.047,5.045-5.047l25.847,0l0,61.81l-25.847,0     C86.109,140.169,83.851,137.91,83.851,135.123z"/>
			<rect x="411.958" y="78.359" style="fill:#4FC6F5;" width="30.892" height="61.81"/>
		</g>
		<path style="fill:#EBAD88;" d="M377.152,170.08V301.7c0,28.06-22.77,50.81-50.85,50.81h-72.97c-37.38,0-50.67-64.7-57.21-86.85    c-1.63-5.5,0.66-11.52,5.7-14.29c10.57-5.8,18.13-20.74,18.13-32.58v-56.66h-0.01V65c0-5.64,2.29-10.74,5.98-14.44    c3.75-3.73,8.93-6.03,14.66-5.97c11.29,0.11,20.22,9.66,20.22,20.95v89.67c0,3.64,2.74,6.69,6.36,7.09l26.55,2.9    c4.22,0.46,7.91-2.84,7.91-7.09v-12.54c0-11.3,9.16-20.47,20.48-20.47h0.09c11.31,0,20.48,9.18,20.48,20.49v21.19    c0,0.41,0.59,0.49,0.7,0.1c0.24-0.86,0.6-2.46,1.33-4.3c1.75-4.42,5.66-10.17,15.35-10.17    C369.592,152.41,377.152,160.54,377.152,170.08z"/>
		<g>
			<path style="fill:#E89776;" d="M377.152,170.08V301.7c0,28.06-22.77,50.81-50.85,50.81h-30.92c28.08,0,50.84-22.75,50.84-50.81     V169.62c0-2.51-0.55-4.89-1.52-7.04c1.75-4.42,5.66-10.17,15.35-10.17C369.592,152.41,377.152,160.54,377.152,170.08z"/>
		</g>
	</g>
	<path style="fill:#D8D5ED;" d="M199.305,406.505v-67.158c0-5.351,4.338-9.689,9.689-9.689h166.175c5.351,0,9.689,4.338,9.689,9.689   v67.158c0,5.351-4.338,9.689-9.689,9.689H208.994C203.643,416.193,199.305,411.855,199.305,406.505z"/>
	<path style="fill:#BEBADE;" d="M375.165,329.658H344.24c5.353,0,9.692,4.337,9.692,9.686v67.164c0,5.349-4.339,9.686-9.692,9.686   h30.925c5.353,0,9.692-4.337,9.692-9.686v-67.164C384.857,333.994,380.518,329.658,375.165,329.658z"/>
	<ellipse style="fill:#FF2C5C;" cx="329.751" cy="372.645" rx="15.463" ry="15.453"/>
	<g>
		<path style="fill:#FFD659;" d="M393.823,4.137l10.125,20.326c1.091,2.19,3.2,3.708,5.639,4.059l22.64,3.26    c6.143,0.884,8.596,8.364,4.151,12.658l-16.383,15.822c-1.765,1.705-2.571,4.161-2.154,6.568l3.867,22.341    c1.049,6.062-5.373,10.685-10.867,7.823l-20.25-10.548c-2.182-1.137-4.789-1.137-6.971,0l-20.25,10.548    c-5.495,2.862-11.917-1.761-10.867-7.823l3.867-22.341c0.417-2.407-0.389-4.864-2.154-6.568L337.835,44.44    c-4.445-4.293-1.992-11.773,4.151-12.658l22.64-3.26c2.44-0.351,4.548-1.869,5.639-4.059L380.39,4.137    C383.138-1.379,391.076-1.379,393.823,4.137z"/>
		<path style="fill:#FFBD54;" d="M419.99,60.263c-1.765,1.7-2.564,4.159-2.152,6.567l3.866,22.341    c1.057,6.065-5.373,10.688-10.863,7.829l-2.925-1.532c-1.43-39.544-19.973-54.314-28.967-88.437l1.443-2.897    c2.744-5.511,10.682-5.511,13.427,0l10.128,20.332c1.095,2.189,3.196,3.708,5.644,4.056l22.64,3.258    c6.134,0.888,8.595,8.37,4.149,12.658L419.99,60.263z"/>
	</g>
	<g>
		<path style="fill:#FFD659;" d="M136.955,175.662l10.125,20.326c1.091,2.19,3.2,3.708,5.639,4.059l22.64,3.26    c6.143,0.884,8.596,8.364,4.151,12.658l-16.383,15.822c-1.765,1.705-2.571,4.161-2.154,6.568l3.867,22.341    c1.049,6.062-5.373,10.685-10.867,7.823l-20.25-10.548c-2.182-1.137-4.789-1.137-6.971,0l-20.25,10.548    c-5.495,2.862-11.917-1.761-10.867-7.823l3.867-22.341c0.417-2.407-0.389-4.864-2.154-6.568l-16.383-15.822    c-4.445-4.293-1.992-11.773,4.151-12.658l22.64-3.26c2.44-0.351,4.548-1.869,5.639-4.059l10.125-20.326    C126.269,170.146,134.207,170.146,136.955,175.662z"/>
		<path style="fill:#FFBD54;" d="M163.122,231.788c-1.765,1.7-2.564,4.159-2.152,6.567l3.866,22.341    c1.057,6.065-5.373,10.688-10.863,7.829l-2.925-1.532c-1.43-39.544-19.973-54.314-28.967-88.437l1.443-2.897    c2.744-5.511,10.682-5.511,13.427,0l10.128,20.332c1.095,2.189,3.196,3.708,5.644,4.056l22.64,3.258    c6.134,0.888,8.595,8.37,4.149,12.658L163.122,231.788z"/>
	</g>
</g>















</svg>
